<svg xmlns="http://www.w3.org/2000/svg" xmlns:xlink="http://www.w3.org/1999/xlink" zoomAndPan="magnify" preserveAspectRatio="xMidYMid meet" version="1.0" viewBox="81.57 93.19 207.79 176.68"><defs><g/></defs><g fill="#f59808" fill-opacity="1"><g transform="translate(81.573795, 268.825924)"><g><path d="M 55.484375 -11.734375 C 55.484375 -10.722656 55.582031 -9.765625 55.78125 -8.859375 C 55.976562 -7.960938 56.375 -7.179688 56.96875 -6.515625 C 57.5625 -5.859375 58.375 -5.332031 59.40625 -4.9375 C 60.4375 -4.539062 61.785156 -4.34375 63.453125 -4.34375 C 65.867188 -4.34375 68.085938 -5.035156 70.109375 -6.421875 C 72.128906 -7.804688 73.863281 -9.585938 75.3125 -11.765625 C 76.769531 -13.941406 77.890625 -16.378906 78.671875 -19.078125 C 79.460938 -21.773438 79.859375 -24.46875 79.859375 -27.15625 C 79.859375 -31.144531 79.320312 -34.664062 78.25 -37.71875 C 77.175781 -40.769531 75.671875 -43.347656 73.734375 -45.453125 C 71.804688 -47.566406 69.523438 -49.207031 66.890625 -50.375 C 64.253906 -51.539062 61.394531 -52.210938 58.3125 -52.390625 L 59.640625 -55.75 C 61.566406 -55.65625 63.410156 -55.914062 65.171875 -56.53125 C 66.929688 -57.144531 68.476562 -58.222656 69.8125 -59.765625 C 71.15625 -61.304688 72.222656 -63.382812 73.015625 -66 C 73.804688 -68.613281 74.203125 -71.894531 74.203125 -75.84375 C 74.203125 -78.519531 73.867188 -80.9375 73.203125 -83.09375 C 72.546875 -85.25 71.675781 -87.0625 70.59375 -88.53125 C 69.519531 -90 68.269531 -91.128906 66.84375 -91.921875 C 65.414062 -92.710938 63.957031 -93.109375 62.46875 -93.109375 C 61.539062 -93.109375 60.648438 -93 59.796875 -92.78125 C 58.941406 -92.5625 58.195312 -92.1875 57.5625 -91.65625 C 56.925781 -91.132812 56.421875 -90.441406 56.046875 -89.578125 C 55.671875 -88.722656 55.484375 -87.660156 55.484375 -86.390625 Z M 56.796875 -98.515625 C 69.535156 -98.515625 78.90625 -96.523438 84.90625 -92.546875 C 90.90625 -88.578125 93.90625 -82.789062 93.90625 -75.1875 C 93.90625 -73.300781 93.695312 -71.566406 93.28125 -69.984375 C 92.863281 -68.398438 92.320312 -66.957031 91.65625 -65.65625 C 91 -64.363281 90.253906 -63.210938 89.421875 -62.203125 C 88.585938 -61.191406 87.726562 -60.3125 86.84375 -59.5625 C 84.78125 -57.769531 82.453125 -56.367188 79.859375 -55.359375 L 79.859375 -54.359375 C 83.953125 -53.878906 87.625 -52.648438 90.875 -50.671875 C 92.226562 -49.835938 93.5625 -48.796875 94.875 -47.546875 C 96.195312 -46.296875 97.375 -44.78125 98.40625 -43 C 99.445312 -41.21875 100.285156 -39.148438 100.921875 -36.796875 C 101.554688 -34.453125 101.875 -31.765625 101.875 -28.734375 C 101.875 -24.117188 101.035156 -19.960938 99.359375 -16.265625 C 97.691406 -12.578125 95.210938 -9.445312 91.921875 -6.875 C 88.628906 -4.3125 84.519531 -2.347656 79.59375 -0.984375 C 74.675781 0.367188 68.96875 1.046875 62.46875 1.046875 C 56.445312 1.046875 51.546875 0.675781 47.765625 -0.0625 C 43.992188 -0.8125 41.050781 -1.898438 38.9375 -3.328125 C 36.832031 -4.753906 35.394531 -6.476562 34.625 -8.5 C 33.851562 -10.519531 33.46875 -12.804688 33.46875 -15.359375 L 33.46875 -87.4375 C 33.46875 -89.851562 31.800781 -91.0625 28.46875 -91.0625 C 26.050781 -91.0625 23.597656 -90.695312 21.109375 -89.96875 C 18.628906 -89.25 16.390625 -88.265625 14.390625 -87.015625 C 12.398438 -85.765625 10.765625 -84.269531 9.484375 -82.53125 C 8.210938 -80.800781 7.578125 -78.925781 7.578125 -76.90625 C 7.578125 -75.5 7.765625 -74.375 8.140625 -73.53125 C 8.515625 -72.695312 8.941406 -72.070312 9.421875 -71.65625 C 9.898438 -71.238281 10.390625 -70.972656 10.890625 -70.859375 C 11.398438 -70.753906 11.769531 -70.703125 12 -70.703125 C 13.09375 -70.703125 13.988281 -70.890625 14.6875 -71.265625 C 15.394531 -71.640625 16.035156 -72.035156 16.609375 -72.453125 C 17.179688 -72.867188 17.71875 -73.265625 18.21875 -73.640625 C 18.726562 -74.015625 19.3125 -74.203125 19.96875 -74.203125 C 20.488281 -74.203125 21.046875 -74.078125 21.640625 -73.828125 C 22.234375 -73.585938 22.78125 -73.203125 23.28125 -72.671875 C 23.789062 -72.148438 24.222656 -71.460938 24.578125 -70.609375 C 24.929688 -69.753906 25.109375 -68.710938 25.109375 -67.484375 C 25.109375 -65.722656 24.765625 -64.203125 24.078125 -62.921875 C 23.398438 -61.648438 22.519531 -60.585938 21.4375 -59.734375 C 20.363281 -58.878906 19.132812 -58.242188 17.75 -57.828125 C 16.375 -57.410156 15.003906 -57.203125 13.640625 -57.203125 C 11.535156 -57.203125 9.632812 -57.5625 7.9375 -58.28125 C 6.25 -59.007812 4.8125 -60.007812 3.625 -61.28125 C 2.4375 -62.550781 1.535156 -64.039062 0.921875 -65.75 C 0.304688 -67.46875 0 -69.296875 0 -71.234375 C 0 -74.878906 0.675781 -78.097656 2.03125 -80.890625 C 3.394531 -83.679688 5.316406 -86.085938 7.796875 -88.109375 C 10.285156 -90.128906 13.265625 -91.804688 16.734375 -93.140625 C 20.203125 -94.484375 24.046875 -95.550781 28.265625 -96.34375 C 32.484375 -97.132812 37 -97.691406 41.8125 -98.015625 C 46.625 -98.347656 51.617188 -98.515625 56.796875 -98.515625 Z M 56.796875 -98.515625 "/></g></g></g><g fill="#fa9395" fill-opacity="1"><g transform="translate(187.486553, 268.825924)"><g><path d="M 55.484375 -11.734375 C 55.484375 -10.722656 55.582031 -9.765625 55.78125 -8.859375 C 55.976562 -7.960938 56.375 -7.179688 56.96875 -6.515625 C 57.5625 -5.859375 58.375 -5.332031 59.40625 -4.9375 C 60.4375 -4.539062 61.785156 -4.34375 63.453125 -4.34375 C 65.867188 -4.34375 68.085938 -5.035156 70.109375 -6.421875 C 72.128906 -7.804688 73.863281 -9.585938 75.3125 -11.765625 C 76.769531 -13.941406 77.890625 -16.378906 78.671875 -19.078125 C 79.460938 -21.773438 79.859375 -24.46875 79.859375 -27.15625 C 79.859375 -31.144531 79.320312 -34.664062 78.25 -37.71875 C 77.175781 -40.769531 75.671875 -43.347656 73.734375 -45.453125 C 71.804688 -47.566406 69.523438 -49.207031 66.890625 -50.375 C 64.253906 -51.539062 61.394531 -52.210938 58.3125 -52.390625 L 59.640625 -55.75 C 61.566406 -55.65625 63.410156 -55.914062 65.171875 -56.53125 C 66.929688 -57.144531 68.476562 -58.222656 69.8125 -59.765625 C 71.15625 -61.304688 72.222656 -63.382812 73.015625 -66 C 73.804688 -68.613281 74.203125 -71.894531 74.203125 -75.84375 C 74.203125 -78.519531 73.867188 -80.9375 73.203125 -83.09375 C 72.546875 -85.25 71.675781 -87.0625 70.59375 -88.53125 C 69.519531 -90 68.269531 -91.128906 66.84375 -91.921875 C 65.414062 -92.710938 63.957031 -93.109375 62.46875 -93.109375 C 61.539062 -93.109375 60.648438 -93 59.796875 -92.78125 C 58.941406 -92.5625 58.195312 -92.1875 57.5625 -91.65625 C 56.925781 -91.132812 56.421875 -90.441406 56.046875 -89.578125 C 55.671875 -88.722656 55.484375 -87.660156 55.484375 -86.390625 Z M 56.796875 -98.515625 C 69.535156 -98.515625 78.90625 -96.523438 84.90625 -92.546875 C 90.90625 -88.578125 93.90625 -82.789062 93.90625 -75.1875 C 93.90625 -73.300781 93.695312 -71.566406 93.28125 -69.984375 C 92.863281 -68.398438 92.320312 -66.957031 91.65625 -65.65625 C 91 -64.363281 90.253906 -63.210938 89.421875 -62.203125 C 88.585938 -61.191406 87.726562 -60.3125 86.84375 -59.5625 C 84.78125 -57.769531 82.453125 -56.367188 79.859375 -55.359375 L 79.859375 -54.359375 C 83.953125 -53.878906 87.625 -52.648438 90.875 -50.671875 C 92.226562 -49.835938 93.5625 -48.796875 94.875 -47.546875 C 96.195312 -46.296875 97.375 -44.78125 98.40625 -43 C 99.445312 -41.21875 100.285156 -39.148438 100.921875 -36.796875 C 101.554688 -34.453125 101.875 -31.765625 101.875 -28.734375 C 101.875 -24.117188 101.035156 -19.960938 99.359375 -16.265625 C 97.691406 -12.578125 95.210938 -9.445312 91.921875 -6.875 C 88.628906 -4.3125 84.519531 -2.347656 79.59375 -0.984375 C 74.675781 0.367188 68.96875 1.046875 62.46875 1.046875 C 56.445312 1.046875 51.546875 0.675781 47.765625 -0.0625 C 43.992188 -0.8125 41.050781 -1.898438 38.9375 -3.328125 C 36.832031 -4.753906 35.394531 -6.476562 34.625 -8.5 C 33.851562 -10.519531 33.46875 -12.804688 33.46875 -15.359375 L 33.46875 -87.4375 C 33.46875 -89.851562 31.800781 -91.0625 28.46875 -91.0625 C 26.050781 -91.0625 23.597656 -90.695312 21.109375 -89.96875 C 18.628906 -89.25 16.390625 -88.265625 14.390625 -87.015625 C 12.398438 -85.765625 10.765625 -84.269531 9.484375 -82.53125 C 8.210938 -80.800781 7.578125 -78.925781 7.578125 -76.90625 C 7.578125 -75.5 7.765625 -74.375 8.140625 -73.53125 C 8.515625 -72.695312 8.941406 -72.070312 9.421875 -71.65625 C 9.898438 -71.238281 10.390625 -70.972656 10.890625 -70.859375 C 11.398438 -70.753906 11.769531 -70.703125 12 -70.703125 C 13.09375 -70.703125 13.988281 -70.890625 14.6875 -71.265625 C 15.394531 -71.640625 16.035156 -72.035156 16.609375 -72.453125 C 17.179688 -72.867188 17.71875 -73.265625 18.21875 -73.640625 C 18.726562 -74.015625 19.3125 -74.203125 19.96875 -74.203125 C 20.488281 -74.203125 21.046875 -74.078125 21.640625 -73.828125 C 22.234375 -73.585938 22.78125 -73.203125 23.28125 -72.671875 C 23.789062 -72.148438 24.222656 -71.460938 24.578125 -70.609375 C 24.929688 -69.753906 25.109375 -68.710938 25.109375 -67.484375 C 25.109375 -65.722656 24.765625 -64.203125 24.078125 -62.921875 C 23.398438 -61.648438 22.519531 -60.585938 21.4375 -59.734375 C 20.363281 -58.878906 19.132812 -58.242188 17.75 -57.828125 C 16.375 -57.410156 15.003906 -57.203125 13.640625 -57.203125 C 11.535156 -57.203125 9.632812 -57.5625 7.9375 -58.28125 C 6.25 -59.007812 4.8125 -60.007812 3.625 -61.28125 C 2.4375 -62.550781 1.535156 -64.039062 0.921875 -65.75 C 0.304688 -67.46875 0 -69.296875 0 -71.234375 C 0 -74.878906 0.675781 -78.097656 2.03125 -80.890625 C 3.394531 -83.679688 5.316406 -86.085938 7.796875 -88.109375 C 10.285156 -90.128906 13.265625 -91.804688 16.734375 -93.140625 C 20.203125 -94.484375 24.046875 -95.550781 28.265625 -96.34375 C 32.484375 -97.132812 37 -97.691406 41.8125 -98.015625 C 46.625 -98.347656 51.617188 -98.515625 56.796875 -98.515625 Z M 56.796875 -98.515625 "/></g></g></g><g fill="#e65616" fill-opacity="1"><g transform="translate(112.803325, 174.646922)"><g><path d="M 39.15625 0.84375 C 36.21875 0.84375 34.050781 0.234375 32.65625 -0.984375 C 31.257812 -2.210938 30.5625 -4.171875 30.5625 -6.859375 L 30.5625 -73.328125 C 29.445312 -73.222656 28.0625 -73.019531 26.40625 -72.71875 C 24.75 -72.425781 23.015625 -72 21.203125 -71.4375 C 19.390625 -70.882812 17.570312 -70.21875 15.75 -69.4375 C 13.9375 -68.65625 12.3125 -67.75 10.875 -66.71875 C 9.445312 -65.6875 8.28125 -64.523438 7.375 -63.234375 C 6.46875 -61.941406 6.015625 -60.507812 6.015625 -58.9375 C 6.015625 -57.820312 6.160156 -56.929688 6.453125 -56.265625 C 6.753906 -55.609375 7.097656 -55.113281 7.484375 -54.78125 C 7.867188 -54.445312 8.257812 -54.234375 8.65625 -54.140625 C 9.0625 -54.054688 9.351562 -54.015625 9.53125 -54.015625 C 10.394531 -54.015625 11.109375 -54.160156 11.671875 -54.453125 C 12.234375 -54.753906 12.738281 -55.070312 13.1875 -55.40625 C 13.644531 -55.738281 14.070312 -56.050781 14.46875 -56.34375 C 14.875 -56.644531 15.335938 -56.796875 15.859375 -56.796875 C 16.273438 -56.796875 16.71875 -56.695312 17.1875 -56.5 C 17.664062 -56.3125 18.101562 -56.007812 18.5 -55.59375 C 18.90625 -55.175781 19.242188 -54.625 19.515625 -53.9375 C 19.796875 -53.257812 19.9375 -52.429688 19.9375 -51.453125 C 19.9375 -50.054688 19.664062 -48.851562 19.125 -47.84375 C 18.59375 -46.832031 17.894531 -45.984375 17.03125 -45.296875 C 16.175781 -44.617188 15.195312 -44.113281 14.09375 -43.78125 C 13 -43.457031 11.910156 -43.296875 10.828125 -43.296875 C 9.160156 -43.296875 7.65625 -43.582031 6.3125 -44.15625 C 4.96875 -44.726562 3.820312 -45.519531 2.875 -46.53125 C 1.9375 -47.539062 1.222656 -48.726562 0.734375 -50.09375 C 0.242188 -51.457031 0 -52.90625 0 -54.4375 C 0 -58.519531 1.125 -62.050781 3.375 -65.03125 C 5.625 -68.019531 8.703125 -70.5 12.609375 -72.46875 C 16.523438 -74.4375 21.082031 -75.890625 26.28125 -76.828125 C 31.476562 -77.773438 37.039062 -78.25 42.96875 -78.25 C 45.800781 -78.25 48.5625 -78.222656 51.25 -78.171875 C 53.9375 -78.117188 56.382812 -78.039062 58.59375 -77.9375 C 60.8125 -77.832031 62.722656 -77.707031 64.328125 -77.5625 C 65.929688 -77.425781 67.101562 -77.273438 67.84375 -77.109375 C 68.539062 -76.929688 69.097656 -76.675781 69.515625 -76.34375 C 69.929688 -76.007812 70.242188 -75.632812 70.453125 -75.21875 C 70.660156 -74.800781 70.800781 -74.351562 70.875 -73.875 C 70.945312 -73.40625 70.984375 -72.929688 70.984375 -72.453125 C 70.984375 -72.066406 70.929688 -71.617188 70.828125 -71.109375 C 70.722656 -70.609375 70.5625 -70.128906 70.34375 -69.671875 C 70.132812 -69.210938 69.875 -68.828125 69.5625 -68.515625 C 69.25 -68.203125 68.867188 -68.046875 68.421875 -68.046875 C 68.140625 -68.046875 67.847656 -68.164062 67.546875 -68.40625 C 67.253906 -68.65625 66.84375 -68.953125 66.3125 -69.296875 C 65.789062 -69.648438 65.082031 -70.050781 64.1875 -70.5 C 63.300781 -70.957031 62.132812 -71.378906 60.6875 -71.765625 C 59.238281 -72.148438 57.457031 -72.5 55.34375 -72.8125 C 53.238281 -73.125 50.6875 -73.332031 47.6875 -73.4375 L 47.6875 -6.859375 C 47.6875 -4.171875 46.988281 -2.210938 45.59375 -0.984375 C 44.195312 0.234375 42.050781 0.84375 39.15625 0.84375 Z M 39.15625 0.84375 "/></g></g></g><g fill="#e65616" fill-opacity="1"><g transform="translate(175.199026, 174.646922)"><g><path d="M 22.71875 -44.390625 C 24.007812 -46.234375 25.472656 -47.890625 27.109375 -49.359375 C 27.773438 -49.984375 28.515625 -50.59375 29.328125 -51.1875 C 30.148438 -51.78125 31.023438 -52.3125 31.953125 -52.78125 C 32.878906 -53.257812 33.859375 -53.632812 34.890625 -53.90625 C 35.921875 -54.1875 36.976562 -54.328125 38.0625 -54.328125 C 40.394531 -54.328125 42.484375 -53.875 44.328125 -52.96875 C 46.179688 -52.0625 47.734375 -50.539062 48.984375 -48.40625 C 50.242188 -46.28125 51.207031 -43.460938 51.875 -39.953125 C 52.539062 -36.453125 52.875 -32.101562 52.875 -26.90625 C 52.875 -21.84375 52.414062 -17.441406 51.5 -13.703125 C 50.59375 -9.972656 49.40625 -6.800781 47.9375 -4.1875 C 46.476562 -1.570312 44.820312 0.5625 42.96875 2.21875 C 41.125 3.882812 39.257812 5.1875 37.375 6.125 C 35.488281 7.0625 33.671875 7.710938 31.921875 8.078125 C 30.179688 8.453125 28.679688 8.65625 27.421875 8.6875 L 26.90625 6.546875 C 28.476562 6.160156 29.875 5.441406 31.09375 4.390625 C 32.3125 3.347656 33.335938 1.632812 34.171875 -0.75 C 35.015625 -3.144531 35.65625 -6.363281 36.09375 -10.40625 C 36.53125 -14.457031 36.75 -19.675781 36.75 -26.0625 C 36.75 -30.457031 36.546875 -33.972656 36.140625 -36.609375 C 35.742188 -39.242188 35.222656 -41.25 34.578125 -42.625 C 33.929688 -44.007812 33.195312 -44.921875 32.375 -45.359375 C 31.550781 -45.796875 30.722656 -46.015625 29.890625 -46.015625 C 28.878906 -46.015625 27.988281 -45.742188 27.21875 -45.203125 C 26.445312 -44.660156 25.773438 -44.039062 25.203125 -43.34375 C 24.628906 -42.644531 24.140625 -41.945312 23.734375 -41.25 C 23.335938 -40.550781 23 -40.023438 22.71875 -39.671875 L 22.71875 -4.71875 C 22.71875 -4.257812 22.644531 -3.707031 22.5 -3.0625 C 22.363281 -2.414062 22.023438 -1.800781 21.484375 -1.21875 C 20.941406 -0.644531 20.140625 -0.160156 19.078125 0.234375 C 18.015625 0.640625 16.554688 0.84375 14.703125 0.84375 C 12.859375 0.84375 11.394531 0.625 10.3125 0.1875 C 9.226562 -0.25 8.414062 -0.765625 7.875 -1.359375 C 7.332031 -1.953125 6.988281 -2.5625 6.84375 -3.1875 C 6.707031 -3.820312 6.640625 -4.332031 6.640625 -4.71875 L 6.640625 -72.234375 C 6.640625 -73.242188 6.40625 -74.125 5.9375 -74.875 C 5.46875 -75.625 4.675781 -76 3.5625 -76 C 2.96875 -76 2.453125 -75.898438 2.015625 -75.703125 C 1.578125 -75.515625 1.113281 -75.234375 0.625 -74.859375 L -0.421875 -76.109375 C 0.378906 -76.773438 1.269531 -77.429688 2.25 -78.078125 C 3.226562 -78.722656 4.300781 -79.285156 5.46875 -79.765625 C 6.632812 -80.253906 7.878906 -80.65625 9.203125 -80.96875 C 10.535156 -81.289062 11.9375 -81.453125 13.40625 -81.453125 C 15.664062 -81.453125 17.425781 -81.144531 18.6875 -80.53125 C 19.945312 -79.914062 20.867188 -79.164062 21.453125 -78.28125 C 22.046875 -77.394531 22.40625 -76.453125 22.53125 -75.453125 C 22.65625 -74.460938 22.71875 -73.582031 22.71875 -72.8125 Z M 22.71875 -44.390625 "/></g></g></g><g fill="#e65616" fill-opacity="1"><g transform="translate(232.360188, 174.646922)"><g><path d="M 20.046875 -24.03125 C 20.046875 -22.90625 20.210938 -21.6875 20.546875 -20.375 C 20.878906 -19.070312 21.359375 -17.757812 21.984375 -16.4375 C 22.609375 -15.113281 23.382812 -13.847656 24.3125 -12.640625 C 25.238281 -11.429688 26.300781 -10.359375 27.5 -9.421875 C 28.707031 -8.484375 30.039062 -7.734375 31.5 -7.171875 C 32.96875 -6.609375 34.578125 -6.328125 36.328125 -6.328125 C 37.546875 -6.328125 38.675781 -6.46875 39.71875 -6.75 C 40.769531 -7.03125 41.75 -7.414062 42.65625 -7.90625 C 43.5625 -8.394531 44.429688 -8.960938 45.265625 -9.609375 C 46.109375 -10.253906 46.953125 -10.941406 47.796875 -11.671875 L 49.09375 -10.421875 C 48.289062 -9.335938 47.257812 -8.148438 46 -6.859375 C 44.75 -5.566406 43.234375 -4.351562 41.453125 -3.21875 C 39.671875 -2.082031 37.59375 -1.140625 35.21875 -0.390625 C 32.851562 0.359375 30.148438 0.734375 27.109375 0.734375 C 24.078125 0.734375 21.117188 0.1875 18.234375 -0.90625 C 15.359375 -2.007812 12.800781 -3.660156 10.5625 -5.859375 C 8.332031 -8.054688 6.546875 -10.796875 5.203125 -14.078125 C 3.859375 -17.359375 3.1875 -21.195312 3.1875 -25.59375 C 3.1875 -28.769531 3.585938 -31.679688 4.390625 -34.328125 C 5.191406 -36.984375 6.28125 -39.375 7.65625 -41.5 C 9.039062 -43.632812 10.648438 -45.503906 12.484375 -47.109375 C 14.316406 -48.710938 16.242188 -50.046875 18.265625 -51.109375 C 20.285156 -52.179688 22.351562 -52.984375 24.46875 -53.515625 C 26.582031 -54.054688 28.613281 -54.328125 30.5625 -54.328125 C 33.144531 -54.328125 35.394531 -54.046875 37.3125 -53.484375 C 39.238281 -52.929688 40.835938 -52.179688 42.109375 -51.234375 C 43.378906 -50.296875 44.328125 -49.207031 44.953125 -47.96875 C 45.585938 -46.726562 45.90625 -45.429688 45.90625 -44.078125 C 45.90625 -42.429688 45.429688 -40.953125 44.484375 -39.640625 C 43.546875 -38.335938 42.289062 -37.195312 40.71875 -36.21875 Z M 30.5625 -34.65625 C 31.019531 -34.9375 31.394531 -35.207031 31.6875 -35.46875 C 31.988281 -35.726562 32.222656 -36.039062 32.390625 -36.40625 C 32.566406 -36.769531 32.695312 -37.222656 32.78125 -37.765625 C 32.875 -38.304688 32.921875 -38.976562 32.921875 -39.78125 C 32.921875 -40.65625 32.820312 -41.625 32.625 -42.6875 C 32.4375 -43.75 32.113281 -44.75 31.65625 -45.6875 C 31.207031 -46.632812 30.632812 -47.421875 29.9375 -48.046875 C 29.238281 -48.679688 28.398438 -49 27.421875 -49 C 26.171875 -49 25.097656 -48.625 24.203125 -47.875 C 23.316406 -47.125 22.582031 -46.15625 22 -44.96875 C 21.425781 -43.78125 20.972656 -42.425781 20.640625 -40.90625 C 20.316406 -39.382812 20.066406 -37.859375 19.890625 -36.328125 C 19.710938 -34.796875 19.609375 -33.320312 19.578125 -31.90625 C 19.546875 -30.488281 19.53125 -29.289062 19.53125 -28.3125 Z M 30.5625 -34.65625 "/></g></g></g></svg>